<?xml version="1.0" encoding="UTF-8" standalone="no"?>
<svg
   xmlns:dc="http://purl.org/dc/elements/1.1/"
   xmlns:cc="http://creativecommons.org/ns#"
   xmlns:rdf="http://www.w3.org/1999/02/22-rdf-syntax-ns#"
   xmlns:svg="http://www.w3.org/2000/svg"
   xmlns="http://www.w3.org/2000/svg"
   xmlns:xlink="http://www.w3.org/1999/xlink"
   viewBox="0 0 32 32"
   id="svg4032"
   height="32"
   width="32"
   version="1.1">
  <metadata
     id="metadata41">
    <rdf:RDF>
      <cc:Work
         rdf:about="">
        <dc:format>image/svg+xml</dc:format>
        <dc:type
           rdf:resource="http://purl.org/dc/dcmitype/StillImage" />
        <dc:title></dc:title>
      </cc:Work>
    </rdf:RDF>
  </metadata>
  <defs
     id="defs4034">
    <linearGradient
       id="linearGradient4293">
      <stop
         offset="0"
         style="stop-color:#ffffff;stop-opacity:1"
         id="stop4295" />
      <stop
         offset="0.03432899"
         style="stop-color:#ffffff;stop-opacity:0.23529412"
         id="stop4297" />
      <stop
         offset="0.96892834"
         style="stop-color:#ffffff;stop-opacity:0.15686275"
         id="stop4299" />
      <stop
         offset="1"
         style="stop-color:#ffffff;stop-opacity:0.39215687"
         id="stop4301" />
    </linearGradient>
    <linearGradient
       id="linearGradient3223">
      <stop
         id="stop3225"
         style="stop-color:#ffffff;stop-opacity:1"
         offset="0" />
      <stop
         id="stop3227"
         style="stop-color:#ffffff;stop-opacity:0.23529412"
         offset="0.01500674" />
      <stop
         id="stop3229"
         style="stop-color:#ffffff;stop-opacity:0.15686275"
         offset="0.99559212" />
      <stop
         id="stop3231"
         style="stop-color:#ffffff;stop-opacity:0.39215687"
         offset="1" />
    </linearGradient>
    <linearGradient
       id="linearGradient3178">
      <stop
         offset="0"
         style="stop-color:#787878;stop-opacity:1"
         id="stop3180" />
      <stop
         offset="0.24005625"
         style="stop-color:#c8c8c8;stop-opacity:1"
         id="stop3184" />
      <stop
         offset="0.33494958"
         style="stop-color:#e6e6e6;stop-opacity:1"
         id="stop3186" />
      <stop
         offset="1"
         style="stop-color:#8c8c8c;stop-opacity:1"
         id="stop3188" />
    </linearGradient>
    <linearGradient
       id="linearGradient10691-1">
      <stop
         offset="0"
         style="stop-color:#000000;stop-opacity:1"
         id="stop10693-3" />
      <stop
         offset="1"
         style="stop-color:#000000;stop-opacity:0"
         id="stop10695-1" />
    </linearGradient>
    <linearGradient
       y2="95.365944"
       x2="397.07306"
       y1="87.076035"
       x1="397.07306"
       gradientTransform="matrix(0.68184398,0,0,0.6063426,-254.2496,-27.797984)"
       gradientUnits="userSpaceOnUse"
       id="linearGradient3138"
       xlink:href="#linearGradient3178" />
    <radialGradient
       r="7.228416"
       fy="73.615715"
       fx="6.702713"
       cy="73.615715"
       cx="6.702713"
       gradientTransform="matrix(1.2450862,0,0,0.27668578,7.6545456,8.631578)"
       gradientUnits="userSpaceOnUse"
       id="radialGradient3143"
       xlink:href="#linearGradient10691-1" />
    <linearGradient
       y2="42.989254"
       x2="24.809988"
       y1="51.150356"
       x1="24.809988"
       gradientTransform="matrix(0.76735295,0,0,0.517399,-2.4164796,1.589522)"
       gradientUnits="userSpaceOnUse"
       id="linearGradient3157"
       xlink:href="#linearGradient4293" />
    <linearGradient
       xlink:href="#linearGradient3223"
       id="linearGradient3200"
       gradientUnits="userSpaceOnUse"
       gradientTransform="matrix(0.78378391,0,0,0.54054052,-2.8108185,0.52703318)"
       x1="23.99999"
       y1="6.3918076"
       x2="23.99999"
       y2="41.422607" />
    <linearGradient
       id="linearGradient3880-3">
      <stop
         style="stop-color:#ffffff;stop-opacity:1;"
         offset="0"
         id="stop3883-1" />
      <stop
         style="stop-color:#ffffff;stop-opacity:0;"
         offset="1"
         id="stop3885-5" />
    </linearGradient>
    <linearGradient
       xlink:href="#linearGradient3880-3"
       id="linearGradient3368"
       gradientUnits="userSpaceOnUse"
       gradientTransform="matrix(0.75000013,0,0,0.77777772,0.27110116,9.2222216)"
       x1="10"
       y1="-3"
       x2="20"
       y2="12" />
    <radialGradient
       r="12.671875"
       fy="9.9571075"
       fx="7.1183534"
       cy="9.9571075"
       cx="7.1183534"
       gradientTransform="matrix(0,5.7252083,-8.6317707,0,102.58675,-46.535321)"
       gradientUnits="userSpaceOnUse"
       id="radialGradient4091"
       xlink:href="#radialGradient3164-3" />
    <radialGradient
       gradientTransform="matrix(1.273594e-7,3.2957553,-5.3809239,0,77.467708,-19.382411)"
       gradientUnits="userSpaceOnUse"
       id="radialGradient3164-3"
       r="20"
       cy="8.4497995"
       cx="7.4956999">
      <stop
         offset="0"
         style="stop-color:#f8b17e;stop-opacity:1"
         id="stop3244" />
      <stop
         offset="0.26238"
         style="stop-color:#e35d4f;stop-opacity:1"
         id="stop3246" />
      <stop
         offset="0.66093999"
         style="stop-color:#c6262e;stop-opacity:1"
         id="stop3248" />
      <stop
         offset="1"
         style="stop-color:#690b54;stop-opacity:1"
         id="stop3250" />
    </radialGradient>
  </defs>
  <path
     d="m 25,29 c 0,1.10457 -4.029438,2 -9.000001,2 C 11.029436,31 7,30.10457 7,29 7,27.895431 11.029436,27 15.999999,27 20.970562,27 25,27.895431 25,29 Z"
     id="path2589"
     style="display:inline;overflow:visible;visibility:visible;opacity:0.3;fill:url(#radialGradient3143);fill-opacity:1;fill-rule:nonzero;stroke:none;stroke-width:0.80000001;marker:none" />
  <path
     d="m 11.798578,24.5 c 0,0 0.097,1.898544 -0.386813,2.5 -0.483816,0.601454 -1.4465228,0.5 -1.4465228,0.5 -0.617765,0.06319 -0.622875,2 0,2 H 22.034709 c 0.622876,0 0.617894,-1.937619 0,-2 0,0 -0.962664,0.10147 -1.446474,-0.5 -0.48381,-0.601454 -0.386863,-2.5 -0.386863,-2.5 z"
     id="rect1789-8"
     style="color:#000000;display:inline;overflow:visible;visibility:visible;fill:url(#linearGradient3138);fill-opacity:1;fill-rule:nonzero;stroke:none;stroke-width:0.99827468;stroke-linecap:round;stroke-linejoin:round;stroke-miterlimit:4;stroke-dasharray:none;stroke-dashoffset:0.5;stroke-opacity:1;marker:none;enable-background:new" />
  <path
     id="path4050"
     d="m 12.786173,22.208804 c 0,0 0.0018,2.844043 -0.01971,3.261387 -0.0197,0.38166 -0.05573,0.786402 -0.1183,1.157888 -0.06257,0.371488 -0.197167,0.651867 -0.441872,0.988014 -0.540042,0.741845 -1.337546,0.864844 -1.66431,0.883907 H 21.458019 C 21.131255,28.48094 20.368535,28.288364 19.8285,27.546516 19.583798,27.210369 19.41441,26.999566 19.35184,26.628079 19.28928,26.256594 19.25324,25.851851 19.23354,25.470191 19.212,25.052847 19.21383,22.208804 19.21383,22.208804 Z"
     style="color:#000000;display:inline;overflow:visible;visibility:visible;fill:none;stroke:url(#linearGradient3157);stroke-width:0.99999994;stroke-linecap:round;stroke-linejoin:round;stroke-miterlimit:4;stroke-dasharray:none;stroke-dashoffset:0;stroke-opacity:1;marker:none;enable-background:accumulate" />
  <path
     d="m 11.798578,24.5 c 0,0 0.097,1.898544 -0.386813,2.5 -0.483816,0.601454 -1.4465228,0.5 -1.4465228,0.5 -0.617765,0.06319 -0.622875,2 0,2 H 22.034709 c 0.622876,0 0.617894,-1.937619 0,-2 0,0 -0.962664,0.10147 -1.446474,-0.5 -0.48381,-0.601454 -0.386863,-2.5 -0.386863,-2.5 z"
     id="rect1789-8-2"
     style="color:#000000;display:inline;overflow:visible;visibility:visible;opacity:0.4;fill:none;fill-opacity:1;fill-rule:nonzero;stroke:#000000;stroke-width:0.99827462;stroke-linecap:round;stroke-linejoin:round;stroke-miterlimit:4;stroke-dasharray:none;stroke-dashoffset:0.5;stroke-opacity:1;marker:none;enable-background:new" />
  <rect
     width="31.000011"
     height="21.99976"
     rx="0.68889284"
     ry="0.6666643"
     x="0.49999428"
     y="2.5001197"
     id="rect2722"
     style="fill:#1a1a1a;fill-opacity:1;stroke:#000000;stroke-width:1.00023937;stroke-linecap:round;stroke-linejoin:round;stroke-miterlimit:4;stroke-dasharray:none;stroke-dashoffset:0.5;stroke-opacity:1" />
  <rect
     style="opacity:0.2;fill:none;stroke:url(#linearGradient3200);stroke-width:1;stroke-linecap:round;stroke-linejoin:round;stroke-miterlimit:4;stroke-dasharray:none;stroke-dashoffset:0;stroke-opacity:1"
     id="rect6741-9"
     y="3.5"
     x="1.5"
     ry="0"
     rx="0"
     height="20"
     width="29" />
  <path
     id="rect2722-0-2"
     d="M 2,4 H 30 V 23 H 2 Z"
     style="display:inline;fill:url(#radialGradient4091);fill-opacity:1;stroke:none;font-variant-east_asian:normal;opacity:1;stroke-width:0.99999988;stroke-linecap:butt;stroke-linejoin:miter;stroke-miterlimit:4;stroke-dasharray:none;stroke-dashoffset:0;stroke-opacity:1;marker:none" />
  <path
     id="rect2722-0-2-0"
     d="M 2,4 V 23 H 30 V 4 Z M 3,5 H 29 V 22 H 3 Z"
     style="color:#000000;display:inline;overflow:visible;visibility:visible;opacity:0.3;fill:#000000;fill-opacity:1;fill-rule:nonzero;stroke:none;marker:none;enable-background:accumulate" />
  <g
     transform="translate(-405.04156,238)"
     style="display:inline"
     label="status"
     id="layer9" />
  <path
     d="M 10.068359,9 C 8.9402089,9 8,9.9402084 8,11.068359 v 6.863282 C 8,19.059792 8.9402089,20 10.068359,20 h 7.863282 C 19.059791,20 20,19.059791 20,17.931641 v -0.71875 l 1.205078,1.43164 A 1.0001,1.0001 0 0 0 21.970703,19 H 23 a 1.0001,1.0001 0 0 0 1,-1 v -7 a 1.0001,1.0001 0 0 0 -1,-1 h -0.970703 a 1.0001,1.0001 0 0 0 -0.753906,0.341797 L 20,11.802734 V 11.068359 C 20,9.9402089 19.059791,9 17.931641,9 Z"
     id="rect6844-4-2-3"
     style="color:#bebebe;opacity:0.07000002;fill:#000000;fill-opacity:1;stroke:none;stroke-width:0.99911825;stroke-linecap:butt;stroke-linejoin:miter;stroke-miterlimit:4;stroke-dasharray:none;stroke-dashoffset:0;stroke-opacity:1;font-variant-east_asian:normal" />
  <path
     id="rect6844-4-2"
     d="M 10.068359,10 C 9.476078,10 9,10.476078 9,11.068359 v 6.863282 C 9,18.523922 9.476078,19 10.068359,19 h 7.863282 C 18.523922,19 19,18.523922 19,17.931641 V 14.470703 11.068359 C 19,10.476078 18.523922,10 17.931641,10 Z M 19,14.470703 21.970703,18 H 23 v -7 h -0.970703 z"
     style="color:#bebebe;opacity:0.15;fill:#000000;fill-opacity:1;stroke:none;stroke-width:0.99911825;stroke-linecap:butt;stroke-linejoin:miter;stroke-miterlimit:4;stroke-dasharray:none;stroke-dashoffset:0;stroke-opacity:1;font-variant-east_asian:normal" />
  <path
     id="rect6844-4"
     d="M 10.068359 9 C 9.476078 9 9 9.476078 9 10.068359 L 9 16.931641 C 9 17.523922 9.476078 18 10.068359 18 L 17.931641 18 C 18.523922 18 19 17.523922 19 16.931641 L 19 13.470703 L 19 10.068359 C 19 9.476078 18.523922 9 17.931641 9 L 10.068359 9 z M 19 13.470703 L 21.970703 17 L 23 17 L 23 10 L 22.029297 10 L 19 13.470703 z "
     style="color:#bebebe;fill:#fafafa;stroke:none;stroke-width:0.99911825;font-variant-east_asian:normal;opacity:1;fill-opacity:1;stroke-linecap:butt;stroke-linejoin:miter;stroke-miterlimit:4;stroke-dasharray:none;stroke-dashoffset:0;stroke-opacity:1" />
  <g
     transform="translate(-405.04156,238)"
     style="display:inline"
     id="layer13" />
  <g
     transform="translate(-405.04156,238)"
     id="layer14" />
  <g
     transform="translate(-405.04156,238)"
     style="display:inline"
     id="layer15" />
  <g
     transform="translate(-405.04156,238)"
     style="display:inline"
     id="g71291" />
  <g
     transform="translate(-405.04156,238)"
     style="display:inline"
     id="layer12" />
  <path
     id="rect3872-1"
     d="M 1.0211038,3 V 17 L 31.021104,6.7916665 V 3 Z"
     style="display:inline;opacity:0.2;fill:url(#linearGradient3368);fill-opacity:1;stroke:none" />
</svg>
