<?xml version="1.0" encoding="UTF-8" standalone="no"?>
<svg
   xmlns:dc="http://purl.org/dc/elements/1.1/"
   xmlns:cc="http://creativecommons.org/ns#"
   xmlns:rdf="http://www.w3.org/1999/02/22-rdf-syntax-ns#"
   xmlns:svg="http://www.w3.org/2000/svg"
   xmlns="http://www.w3.org/2000/svg"
   xmlns:xlink="http://www.w3.org/1999/xlink"
   viewBox="0 0 64 64"
   id="svg4569"
   height="64"
   width="64"
   version="1.0">
  <metadata
     id="metadata54">
    <rdf:RDF>
      <cc:Work
         rdf:about="">
        <dc:format>image/svg+xml</dc:format>
        <dc:type
           rdf:resource="http://purl.org/dc/dcmitype/StillImage" />
        <dc:title></dc:title>
      </cc:Work>
    </rdf:RDF>
  </metadata>
  <defs
     id="defs4571">
    <linearGradient
       id="linearGradient4084">
      <stop
         id="stop4086"
         style="stop-color:#ffffff;stop-opacity:1"
         offset="0" />
      <stop
         id="stop4088"
         style="stop-color:#ffffff;stop-opacity:0.23529412"
         offset="0.01596775" />
      <stop
         id="stop4090"
         style="stop-color:#ffffff;stop-opacity:0.15686275"
         offset="0.99257565" />
      <stop
         id="stop4092"
         style="stop-color:#ffffff;stop-opacity:0.39215687"
         offset="1" />
    </linearGradient>
    <linearGradient
       id="linearGradient3912">
      <stop
         offset="0"
         style="stop-color:#787878;stop-opacity:1"
         id="stop3914" />
      <stop
         offset="0.35046947"
         style="stop-color:#bebebe;stop-opacity:1"
         id="stop3916" />
      <stop
         offset="0.49417919"
         style="stop-color:#c8c8c8;stop-opacity:1"
         id="stop3918" />
      <stop
         offset="0.58907253"
         style="stop-color:#e6e6e6;stop-opacity:1"
         id="stop3920" />
      <stop
         offset="1"
         style="stop-color:#8c8c8c;stop-opacity:1"
         id="stop3922" />
    </linearGradient>
    <linearGradient
       id="linearGradient10691-1">
      <stop
         offset="0"
         style="stop-color:#000000;stop-opacity:1"
         id="stop10693-3" />
      <stop
         offset="1"
         style="stop-color:#000000;stop-opacity:0"
         id="stop10695-1" />
    </linearGradient>
    <linearGradient
       gradientTransform="matrix(1.3111548,0,0,1.3337028,-437.61398,-66.532889)"
       gradientUnits="userSpaceOnUse"
       xlink:href="#linearGradient3912"
       id="linearGradient2451"
       y2="94.396416"
       x2="361.10583"
       y1="87.050117"
       x1="361.10583" />
    <radialGradient
       gradientTransform="matrix(2.5824009,0,0,0.5533716,14.690909,17.92982)"
       gradientUnits="userSpaceOnUse"
       xlink:href="#linearGradient10691-1"
       id="radialGradient2456"
       fy="73.615715"
       fx="6.702713"
       r="7.228416"
       cy="73.615715"
       cx="6.702713" />
    <linearGradient
       id="linearGradient3880">
      <stop
         style="stop-color:#ffffff;stop-opacity:1;"
         offset="0"
         id="stop3883" />
      <stop
         style="stop-color:#ffffff;stop-opacity:0;"
         offset="1"
         id="stop3885" />
    </linearGradient>
    <linearGradient
       y2="12"
       x2="20"
       y1="-3"
       x1="10"
       gradientTransform="matrix(1.5500003,0,0,1.5555554,-0.55000582,17.444445)"
       gradientUnits="userSpaceOnUse"
       id="linearGradient3141"
       xlink:href="#linearGradient3880" />
    <linearGradient
       y2="42.121033"
       x2="23.99999"
       y1="5.7531762"
       x1="23.99999"
       gradientTransform="matrix(1.6486489,0,0,1.135135,-7.5675799,-0.74323082)"
       gradientUnits="userSpaceOnUse"
       id="linearGradient3144"
       xlink:href="#linearGradient4084" />
    <linearGradient
       y2="40.265266"
       x2="25.004524"
       y1="51.07592"
       x1="25.004524"
       gradientTransform="matrix(1.2162163,0,0,0.83783786,2.6663586,14.977385)"
       gradientUnits="userSpaceOnUse"
       id="linearGradient3152-7"
       xlink:href="#linearGradient4054-5" />
    <linearGradient
       id="linearGradient4054-5">
      <stop
         id="stop4056-0"
         style="stop-color:#ffffff;stop-opacity:1"
         offset="0" />
      <stop
         id="stop4058-4"
         style="stop-color:#ffffff;stop-opacity:0.23529412"
         offset="0.06316455" />
      <stop
         id="stop4060-4"
         style="stop-color:#ffffff;stop-opacity:0.15686275"
         offset="0.96892834" />
      <stop
         id="stop4062-0"
         style="stop-color:#ffffff;stop-opacity:0.39215687"
         offset="1" />
    </linearGradient>
    <radialGradient
       r="12.671875"
       fy="9.9571075"
       fx="7.1183534"
       cy="9.9571075"
       cx="7.1183534"
       gradientTransform="matrix(0,10.847763,-17.263541,0,205.17349,-87.251097)"
       gradientUnits="userSpaceOnUse"
       id="radialGradient4091"
       xlink:href="#radialGradient3164" />
    <radialGradient
       gradientTransform="matrix(1.273594e-7,3.2957553,-5.3809239,0,77.467708,-19.382411)"
       gradientUnits="userSpaceOnUse"
       id="radialGradient3164"
       r="20"
       cy="8.4497995"
       cx="7.4956999">
      <stop
         offset="0"
         style="stop-color:#f8b17e;stop-opacity:1"
         id="stop3244" />
      <stop
         offset="0.26238"
         style="stop-color:#e35d4f;stop-opacity:1"
         id="stop3246" />
      <stop
         offset="0.66093999"
         style="stop-color:#c6262e;stop-opacity:1"
         id="stop3248" />
      <stop
         offset="1"
         style="stop-color:#690b54;stop-opacity:1"
         id="stop3250" />
    </radialGradient>
  </defs>
  <path
     style="display:inline;overflow:visible;visibility:visible;opacity:0.3;fill:url(#radialGradient2456);fill-opacity:1;fill-rule:nonzero;stroke:none;stroke-width:0.80000001;marker:none"
     id="path2589"
     d="m 50.666665,58.666665 c 0,2.20914 -8.357351,4 -18.666667,4 -10.309315,0 -18.666665,-1.79086 -18.666665,-4 0,-2.209138 8.35735,-4 18.666665,-4 10.309316,0 18.666667,1.790862 18.666667,4 z" />
  <path
     style="display:inline;overflow:visible;visibility:visible;fill:url(#linearGradient2451);fill-opacity:1;fill-rule:nonzero;stroke:none;stroke-width:0.99827456;stroke-linecap:round;stroke-linejoin:round;stroke-miterlimit:4;stroke-dasharray:none;stroke-dashoffset:0.5;stroke-opacity:1;marker:none;enable-background:new"
     id="rect1789"
     d="m 23.919786,48.499137 c 0,0 0.186555,5.677784 -0.743925,7.001192 -0.93048,1.323409 -2.781966,1.338846 -2.781966,1.338846 -1.188092,0.139034 -1.19792,2.661687 0,2.661687 H 43.60601 c 1.197921,0 1.188341,-2.524427 0,-2.661687 0,0 -1.851406,-0.01544 -2.781873,-1.338846 C 39.893671,54.176924 40.08012,48.499137 40.08012,48.499137 H 23.919786 Z" />
  <rect
     style="fill:#1a1a1a;fill-opacity:1;stroke:#000000;stroke-width:1.00023937;stroke-linecap:round;stroke-linejoin:round;stroke-miterlimit:4;stroke-dasharray:none;stroke-dashoffset:0.5;stroke-opacity:1"
     id="rect2722"
     y="4.5002007"
     x="0.50011969"
     ry="1.3333333"
     rx="1.4000021"
     height="43.99968"
     width="62.99976" />
  <path
     id="rect2722-0"
     d="M 3.9999997,8.5000405 H 59.999999 V 44.500041 H 3.9999997 Z"
     style="display:inline;fill:url(#radialGradient4091);fill-opacity:1;stroke:none;font-variant-east_asian:normal;opacity:1;stroke-width:0.99999988;stroke-linecap:butt;stroke-linejoin:miter;stroke-miterlimit:4;stroke-dasharray:none;stroke-dashoffset:0;stroke-opacity:1;marker:none" />
  <path
     id="path3942"
     d="m 4,8.5 v 36 h 56 v -36 z m 1,1 h 54 v 34 H 5 Z"
     style="display:inline;opacity:0.2;fill:#000000;fill-opacity:1;stroke:none" />
  <rect
     style="opacity:0.2;fill:none;stroke:url(#linearGradient3144);stroke-width:0.99999988;stroke-linecap:round;stroke-linejoin:round;stroke-miterlimit:4;stroke-dasharray:none;stroke-dashoffset:0;stroke-opacity:1"
     id="rect6741"
     y="5.5"
     x="1.5"
     ry="0"
     rx="0"
     height="42"
     width="61.000004" />
  <path
     style="color:#000000;display:inline;overflow:visible;visibility:visible;opacity:0.4;fill:none;fill-opacity:1;fill-rule:nonzero;stroke:#000000;stroke-width:0.99827462;stroke-linecap:round;stroke-linejoin:round;stroke-miterlimit:4;stroke-dasharray:none;stroke-dashoffset:0.5;stroke-opacity:1;marker:none;enable-background:new"
     id="rect1789-9"
     d="m 23.919786,48.499137 c 0,0 0.186555,5.677784 -0.743925,7.001192 -0.93048,1.323409 -2.781966,1.338846 -2.781966,1.338846 -1.188092,0.139034 -1.19792,2.661687 0,2.661687 H 43.60601 c 1.197921,0 1.188341,-2.524427 0,-2.661687 0,0 -1.851406,-0.01544 -2.781873,-1.338846 C 39.893671,54.176924 40.08012,48.499137 40.08012,48.499137 H 23.919786 Z" />
  <path
     d="m 24.90625,49.5 c 0.01129,0.552305 0.04325,0.949789 0,2.03125 C 24.873643,52.346505 24.8079,53.220881 24.6875,54 24.5671,54.779119 24.435885,55.442547 24,56.0625 c -1.193603,1.697645 -3.115921,1.748832 -3.40625,1.75 -0.03548,0.06074 -0.09343,0.236278 -0.09375,0.40625 -2.61e-4,0.137285 0.04053,0.22439 0.0625,0.28125 h 22.875 C 43.45954,58.44296 43.50025,58.356154 43.5,58.21875 43.499685,58.048631 43.44158,57.872959 43.40625,57.8125 43.11592,57.811332 41.193593,57.760151 40,56.0625 39.564121,55.442548 39.432899,54.779118 39.3125,54 c -0.120399,-0.779118 -0.186142,-1.653495 -0.21875,-2.46875 -0.04326,-1.081461 -0.01129,-1.478945 0,-2.03125 z m 18.5,8.3125 c -0.03533,-0.06046 0.01418,0.02567 0.0625,0.03125 V 57.8125 c -0.005,3.2e-5 -0.0552,2.9e-5 -0.0625,0 z m -22.8125,0 c -0.0073,2.9e-5 -0.05749,3.2e-5 -0.0625,0 -3.58e-4,-2e-6 3.46e-4,0.03125 0,0.03125 0.04802,-0.0056 0.09798,-0.09199 0.0625,-0.03125 z"
     id="path4043"
     style="color:#000000;display:inline;overflow:visible;visibility:visible;opacity:0.6;fill:none;stroke:url(#linearGradient3152-7);stroke-width:0.99999994;stroke-linecap:round;stroke-linejoin:round;stroke-miterlimit:4;stroke-dasharray:none;stroke-dashoffset:0;stroke-opacity:1;marker:none;enable-background:accumulate" />
  <path
     d="m 20,17.958984 c -1.666493,0 -3.041016,1.374523 -3.041016,3.041016 v 14 c 0,1.666493 1.374523,3.041016 3.041016,3.041016 h 16 c 1.666493,0 3.041016,-1.374523 3.041016,-3.041016 v -4.517578 l 5.15625,5.246094 a 1.0407045,1.0407045 0 0 0 0.742187,0.3125 H 46 A 1.0407045,1.0407045 0 0 0 47.041016,35 V 21 A 1.0407045,1.0407045 0 0 0 46,19.958984 h -0.939453 a 1.0407045,1.0407045 0 0 0 -0.728516,0.298828 l -5.291015,5.201172 V 21 c 0,-1.666493 -1.374523,-3.041016 -3.041016,-3.041016 z"
     id="rect6844-4-97-1-9"
     style="color:#bebebe;opacity:0.07000002;fill:#000000;fill-opacity:1;stroke:none;stroke-width:0.99911825;stroke-linecap:butt;stroke-linejoin:miter;stroke-miterlimit:4;stroke-dasharray:none;stroke-dashoffset:0;stroke-opacity:1;font-variant-east_asian:normal" />
  <path
     id="rect6844-4-97-1"
     d="m 20,19 c -1.108,0 -2,0.892 -2,2 v 14 c 0,1.108 0.892,2 2,2 h 16 c 1.108,0 2,-0.892 2,-2 V 27.939453 21 c 0,-1.108 -0.892,-2 -2,-2 z M 38,27.939453 44.939453,35 H 46 V 21 h -0.939453 z"
     style="color:#bebebe;opacity:0.15;fill:#000000;fill-opacity:1;stroke:none;stroke-width:0.99911825;stroke-linecap:butt;stroke-linejoin:miter;stroke-miterlimit:4;stroke-dasharray:none;stroke-dashoffset:0;stroke-opacity:1;font-variant-east_asian:normal" />
  <path
     id="rect6844-4-97"
     d="M 20 18 C 18.892 18 18 18.892 18 20 L 18 34 C 18 35.108 18.892 36 20 36 L 36 36 C 37.108 36 38 35.108 38 34 L 38 26.939453 L 38 20 C 38 18.892 37.108 18 36 18 L 20 18 z M 38 26.939453 L 44.939453 34 L 46 34 L 46 20 L 45.060547 20 L 38 26.939453 z "
     style="color:#bebebe;fill:#fafafa;stroke:none;stroke-width:0.99911825;font-variant-east_asian:normal;opacity:1;fill-opacity:1;stroke-linecap:butt;stroke-linejoin:miter;stroke-miterlimit:4;stroke-dasharray:none;stroke-dashoffset:0;stroke-opacity:1" />
  <path
     id="rect3872"
     d="M 1,5 V 33 L 63,12.583334 V 5 Z"
     style="display:inline;opacity:0.2;fill:url(#linearGradient3141);fill-opacity:1;stroke:none" />
</svg>
